<svg width="39" height="45" viewBox="0 0 39 45" fill="none" xmlns="http://www.w3.org/2000/svg">
<g id="icon 4">
<path id="Vector" d="M6.07788 30.2598H26.8703V32.8965H6.07788V30.2598Z" fill="#33BE99"/>
<path id="Vector_2" d="M6.07788 36.3115H26.8703V38.9482H6.07788V36.3115Z" fill="#33BE99"/>
<path id="Vector_3" d="M32.922 30.2595V0H0.0258789V40.6557C0.0258789 43.0511 1.97477 45 4.37022 45H34.6296C37.0251 45 38.974 43.0511 38.974 40.6557V30.2595H32.922ZM4.37014 42.3633C3.42856 42.3633 2.66251 41.5972 2.66251 40.6557V2.63672H30.2852V40.6557C30.2852 41.2616 30.4098 41.8388 30.6349 42.3633H4.37014ZM36.3372 40.6557C36.3372 41.5972 35.5711 42.3633 34.6296 42.3633C33.688 42.3633 32.9219 41.5972 32.9219 40.6557V32.8962H36.3371V40.6557H36.3372Z" fill="#33BE99"/>
<path id="Vector_4" d="M11.4321 17.2778V27.8547L16.474 24.8291L21.516 27.8547V17.2778C22.9476 15.9324 23.8442 14.0241 23.8442 11.9093C23.8442 7.84533 20.538 4.53906 16.474 4.53906C12.41 4.53906 9.10376 7.84533 9.10376 11.9093C9.10376 14.0242 10.0005 15.9325 11.4321 17.2778ZM18.8793 23.1975L16.474 21.7542L14.0688 23.1975V18.8745C14.8232 19.1358 15.6319 19.2796 16.474 19.2796C17.3162 19.2796 18.1249 19.1357 18.8793 18.8744V23.1975ZM16.474 7.17578C19.0841 7.17578 21.2075 9.29922 21.2075 11.9093C21.2075 14.5194 19.0841 16.6428 16.474 16.6428C13.8639 16.6428 11.7405 14.5194 11.7405 11.9093C11.7405 9.29922 13.8639 7.17578 16.474 7.17578Z" fill="#33BE99"/>
<path id="Vector_5" d="M15.1555 10.5908H17.7922V13.2275H15.1555V10.5908Z" fill="#33BE99"/>
</g>
</svg>
